<?xml version="1.0" encoding="UTF-8"?>
<svg width="500" height="400" viewBox="0 0 500 400" fill="none" xmlns="http://www.w3.org/2000/svg">
  <!-- Background elements -->
  <path d="M214.7 291.9C301.6 291.9 372.2 221.3 372.2 134.4C372.2 47.5 301.6 -23.1 214.7 -23.1C127.8 -23.1 57.2 47.5 57.2 134.4C57.2 221.3 127.8 291.9 214.7 291.9Z" fill="#E8F4FE"/>
  
  <!-- Laptop -->
  <path d="M351.8 248.5H148.2C144.5 248.5 141.4 245.4 141.4 241.7V124.5C141.4 120.8 144.5 117.7 148.2 117.7H351.8C355.5 117.7 358.6 120.8 358.6 124.5V241.7C358.6 245.4 355.5 248.5 351.8 248.5Z" fill="#0F4C75"/>
  <path d="M141.4 230.9H358.6V241.7C358.6 245.4 355.5 248.5 351.8 248.5H148.2C144.5 248.5 141.4 245.4 141.4 241.7V230.9Z" fill="#072A43"/>
  <path d="M365.4 248.5H134.6C132.6 248.5 131 250.1 131 252.1V254.3C131 256.3 132.6 257.9 134.6 257.9H365.4C367.4 257.9 369 256.3 369 254.3V252.1C369 250.1 367.4 248.5 365.4 248.5Z" fill="#0F4C75"/>
  
  <!-- Screen -->
  <path d="M338.2 238.3H161.8V127.9H338.2V238.3Z" fill="#FFFFFF"/>
  
  <!-- Login form on screen -->
  <rect x="196.1" y="147" width="107.8" height="71.2" rx="4" fill="#F0F8FF"/>
  <rect x="196.1" y="147" width="107.8" height="15" rx="4" fill="#007BFF"/>
  <text x="214" y="158" font-family="Arial" font-size="8" font-weight="bold" fill="white">Sign In</text>
  
  <!-- Input fields -->
  <rect x="203" y="170" width="94" height="12" rx="2" fill="white" stroke="#D0D0D0" stroke-width="1"/>
  <rect x="203" y="190" width="94" height="12" rx="2" fill="white" stroke="#D0D0D0" stroke-width="1"/>
  
  <!-- Submit button -->
  <rect x="203" y="210" width="94" height="12" rx="4" fill="#007BFF"/>
  
  <!-- Character -->
  <path d="M280 300C291.046 300 300 291.046 300 280C300 268.954 291.046 260 280 260C268.954 260 260 268.954 260 280C260 291.046 268.954 300 280 300Z" fill="#3F72AF"/>
  <path d="M309 360V340C309 329 299.6 320 288 320H272C260.4 320 251 329 251 340V360" fill="#3F72AF"/>
  
  <!-- Document/Certificate -->
  <rect x="180" y="290" width="40" height="60" rx="2" fill="#D4AF37"/>
  <rect x="185" y="300" width="30" height="2" fill="white"/>
  <rect x="185" y="310" width="30" height="2" fill="white"/>
  <rect x="185" y="320" width="20" height="2" fill="white"/>
  
  <!-- Decorative elements -->
  <circle cx="390" cy="140" r="20" fill="#D4AF37" opacity="0.2"/>
  <circle cx="110" cy="220" r="15" fill="#3F72AF" opacity="0.2"/>
  <circle cx="350" cy="330" r="25" fill="#007BFF" opacity="0.1"/>
</svg>
